# xmcd CD database file
#
# Track frame offsets:
#	150
#	121837
#	160692
#	197300
#	222205
#	247410
#
# Disc length: 3588 seconds
#
# Revision: 1
# Processed by: cddbd v1.5.2PL0 Copyright (c) Steve Scherf et al.
# Submitted via: CDex 1.70beta2
#
DISCID=4c0e0206
DTITLE=Monty Alexander - Li'l Darlin'
DYEAR=2002
DGENRE=Jazz
TTITLE0=Love You Madly
TTITLE1=Eleuthra
TTITLE2=Li'l Darlin'
TTITLE3=Shiny Stockings
TTITLE4=April in Paris
TTITLE5=Jumpin' At The Woodside
EXTD=YEAR: 2002
EXTT0=
EXTT1=
EXTT2=
EXTT3=
EXTT4=
EXTT5=
PLAYORDER=
